<svg width="96" height="155" viewBox="0 0 96 155" fill="none" xmlns="http://www.w3.org/2000/svg">
<path d="M58.1561 45.8069C71.4603 59.3426 81.9822 78.77 86.879 97.0501C89.6559 107.416 90.4549 118.268 90.4464 128.973C90.442 134.516 90.1811 140.009 89.6276 145.523C89.467 147.124 87.4882 153.606 88.8367 154.583C93.3729 157.867 95.7812 133.696 95.8539 131.075C96.1612 119.992 95.9235 108.731 93.4859 97.8804C89.3968 79.6792 81.2476 60.3625 69.1793 46.0119C62.1524 37.656 55.1984 29.2096 46.3929 22.4971C42.6898 19.6744 38.7189 17.1861 34.5506 15.1073C31.6013 13.6363 28.5465 12.2031 25.4303 11.1177C23.1229 10.3139 19.7477 10.4653 17.703 9.33031C20.9211 6.69804 26.6162 6.89889 30.1511 4.42176C34.3541 1.47621 30.4043 -0.167098 27.0108 0.174057C21.61 0.716985 16.3468 2.15705 11.0629 3.33566C6.55995 4.34014 0.561291 4.53642 0.587587 10.1798C0.610602 15.1349 2.58182 20.2214 3.63227 25.0015C4.33468 28.1979 4.21147 35.5149 7.79608 37.0641C18.9983 41.9054 8.28768 17.4696 8.28757 15.4828C10.1941 15.7764 12.0865 17.0506 13.9444 17.6739C16.6314 18.5756 19.419 19.0828 22.1042 19.9971C27.1673 21.7211 32.1981 24.0624 36.8177 26.7546C44.8294 31.4235 52.6393 38.3729 58.1561 45.8069C57.3586 44.7321 62.9693 50.7039 58.1561 45.8069Z" fill="url(#paint0_linear_273_2102)"/>
<defs>
<linearGradient id="paint0_linear_273_2102" x1="86.7688" y1="151.808" x2="66.6923" y2="17.6397" gradientUnits="userSpaceOnUse">
<stop stop-color="#3A416F"/>
<stop offset="1" stop-color="#141727"/>
</linearGradient>
</defs>
</svg>
