<svg width="129" height="43" viewBox="0 0 129 43" fill="none" xmlns="http://www.w3.org/2000/svg">
<path d="M44.9152 10.2151C58.2599 5.44645 74.7245 4.41095 88.6466 6.82719C96.5415 8.19729 104.145 11.06 111.395 14.4237C115.15 16.1656 118.79 18.0651 122.352 20.1697C123.387 20.7807 127.159 24.155 128.243 23.5476C131.892 21.5042 116.268 12.2906 114.515 11.4191C107.103 7.73451 99.398 4.36293 91.2813 2.61098C77.666 -0.327743 62.0221 -0.86549 48.513 2.81014C40.647 4.95032 32.7413 7.01291 25.4309 10.8737C22.3568 12.4974 19.4257 14.4073 16.7096 16.5796C14.7878 18.1165 12.859 19.7368 11.1461 21.5077C9.87765 22.819 8.92079 25.1535 7.51034 26.183C6.73626 23.1768 8.65978 19.3807 8.09015 16.2086C7.41274 12.4368 5.05895 14.5978 4.22563 17.0042C2.89938 20.8339 2.22543 24.8516 1.36656 28.8016C0.634679 32.1677 -1.11405 36.2938 2.71804 38.0462C6.0827 39.5849 10.1475 39.8449 13.7159 40.6326C16.102 41.1593 21.0212 43.5379 23.1953 41.595C29.9895 35.5233 10.0719 35.1157 8.72562 34.4925C9.52263 33.2928 10.9804 32.4101 11.9856 31.3468C13.4393 29.809 14.6571 28.0793 16.1189 26.5467C18.8753 23.6569 22.0389 20.9827 25.3121 18.6971C30.9888 14.7331 38.1475 11.6212 44.9152 10.2151C43.9368 10.4183 49.7431 8.48989 44.9152 10.2151Z" fill="url(#paint0_linear_273_2131)"/>
<defs>
<linearGradient id="paint0_linear_273_2131" x1="125.715" y1="24.0785" x2="28.5083" y2="-4.40428" gradientUnits="userSpaceOnUse">
<stop stop-color="#3A416F"/>
<stop offset="1" stop-color="#141727"/>
</linearGradient>
</defs>
</svg>
