<svg width="47" height="91" viewBox="0 0 47 91" fill="none" xmlns="http://www.w3.org/2000/svg">
<path d="M45.864 0.257847C43.7275 0.427968 43.1323 2.09423 42.4036 3.38369C38.2251 10.7771 33.7784 18.0487 30.0945 25.6857C22.569 41.2862 15.4721 57.0934 8.19238 72.8125C7.60244 74.0865 6.96466 75.3382 6.04899 76.5478C5.9741 70.145 7.21597 63.7954 7.05157 57.4427C6.59022 57.3591 6.12899 57.2756 5.6676 57.1921C5.19505 58.2314 4.47075 59.2288 4.28963 60.3166C2.84209 69.013 1.42321 77.7159 0.159858 86.4405C-0.308532 89.6757 1.37136 90.9937 4.48471 89.8276C6.86576 88.9358 9.15969 87.6909 11.303 86.3093C15.8823 83.3574 20.3828 80.2772 24.8297 77.1283C27.7894 75.0324 27.8975 74.6927 28.982 70.9162C21.6661 72.3368 17.2465 78.182 10.7076 81.0949C11.0333 79.8389 11.1468 78.8222 11.5485 77.9361C22.5396 53.6875 33.5682 29.4559 44.5565 5.20592C45.2281 3.72376 46.5659 2.34103 45.864 0.257847Z" fill="url(#paint0_linear_273_2183)"/>
<defs>
<linearGradient id="paint0_linear_273_2183" x1="30.0228" y1="-5.75182" x2="52.1966" y2="3.69054" gradientUnits="userSpaceOnUse">
<stop stop-color="#3A416F"/>
<stop offset="1" stop-color="#141727"/>
</linearGradient>
</defs>
</svg>
