<svg width="92" height="20" viewBox="0 0 92 20" fill="none" xmlns="http://www.w3.org/2000/svg">
<path d="M82.3434 10.0756C54.8389 21.5113 27.8844 21.9087 0 12.4825C2.0305 10.3818 3.6679 11.2146 5.0219 11.5761C15.0412 14.2516 25.311 14.5304 35.5705 14.9741C50.2927 15.6107 64.2068 12.1384 77.7399 6.72144C78.3183 6.48984 78.831 6.09416 80.073 5.36436C73.127 3.95726 66.2432 6.36436 60.2285 3.59016C60.2807 3.14516 60.3328 2.70014 60.385 2.25504C64.9335 1.91884 69.485 1.61716 74.0298 1.23676C78.5065 0.862061 82.9703 0.313351 87.4514 0.019751C90.7577 -0.196849 92.1472 1.37475 90.9571 4.40485C89.4406 8.26575 87.3563 11.9046 85.4871 15.6242C85.2776 16.0412 84.9411 16.5596 84.5504 16.6888C83.4566 17.0506 82.3036 17.2331 81.1739 17.4862C80.9521 16.4673 80.4457 15.4085 80.5816 14.4398C80.7452 13.2735 81.4548 12.1839 82.3434 10.0756Z" fill="url(#paint0_linear_273_2189)"/>
<defs>
<linearGradient id="paint0_linear_273_2189" x1="2.35813" y1="19.1376" x2="56.808" y2="-19.1535" gradientUnits="userSpaceOnUse">
<stop stop-color="#3A416F"/>
<stop offset="1" stop-color="#141727"/>
</linearGradient>
</defs>
</svg>
