<svg width="157" height="139" viewBox="0 0 157 139" fill="none" xmlns="http://www.w3.org/2000/svg">
<g clip-path="url(#clip0_482_1296)">
<mask id="mask0_482_1296" style="mask-type:luminance" maskUnits="userSpaceOnUse" x="0" y="0" width="157" height="139">
<path d="M156.884 0H0V138.907H156.884V0Z" fill="white"/>
</mask>
<g mask="url(#mask0_482_1296)">
<path fill-rule="evenodd" clip-rule="evenodd" d="M-2.59326 69.9405V141.504H78.6037H159.801V69.9405V-1.62273H78.6037H-2.59326V69.9405ZM-2.26912 69.9405V141.505L78.6848 141.423L159.639 141.342V69.9405V-1.46045L78.6848 -1.54224L-2.26912 -1.62402V69.9405ZM73.7416 6.31187C62.9523 8.00083 54.0009 14.5311 49.0289 24.3413C46.275 29.7752 44.9723 36.9728 45.6948 42.7643C46.1181 46.1604 47.5456 51.0884 48.8659 53.713C53.2732 62.4746 61.0289 68.7744 70.5002 71.2864C76.3766 72.8449 85.07 72.3708 90.4108 70.2002C97.986 67.1221 104.618 61.1566 108.018 54.3621C109.154 52.0929 110.481 48.2943 111.077 45.6045C111.74 42.6164 111.731 35.6762 111.061 32.5871C109.142 23.7379 104.013 16.1282 96.8074 11.4355C89.737 6.83115 81.754 5.05813 73.7416 6.31187ZM74.3899 9.71251C67.512 10.8312 61.4013 14.3993 57.512 19.5681C49.7767 29.8476 49.2334 45.9887 56.2569 56.8599C61.4681 64.9259 70.0565 69.2129 79.9667 68.6952C85.4372 68.4093 89.6501 67.1007 93.4869 64.4956C100.142 59.9772 104.205 53.2385 105.513 44.551C106.128 40.4617 106.119 37.2132 105.481 33.4046C104.349 26.6384 101.767 21.4077 97.4038 17.0389C93.9009 13.5315 90.4692 11.5822 85.3909 10.2159C83.1712 9.61871 76.7681 9.32564 74.3899 9.71251ZM75.2184 10.5573C74.2479 10.8303 72.9922 11.4063 72.4276 11.8373C71.1138 12.8408 69.5369 15.3032 68.7596 17.5656C67.3911 21.5475 67.2588 23.4828 67.2621 39.4328C67.2656 56.2234 67.419 57.9046 69.3337 62.1322C71.202 66.2585 73.4305 67.7923 77.9687 68.0757C84.2804 68.47 87.6009 65.5104 89.3496 57.9322C89.8909 55.5863 89.9483 53.738 89.9451 38.7837C89.9415 22.8672 89.6245 22.394 89.2494 19.7966C87.8119 14.7369 86.1037 12.1969 83.3232 10.9838C81.3541 10.1247 77.4809 9.92087 75.2184 10.5573ZM67.736 86.4345C64.2784 87.2037 61.0308 89.815 59.3894 93.1459C58.6199 94.7073 58.5097 95.3171 58.5084 98.0141C58.5074 100.589 58.6315 101.35 59.2623 102.633C60.4623 105.072 62.6593 107.275 65.0852 108.471C67.0423 109.436 67.5198 109.536 70.1693 109.536C72.6866 109.536 73.3413 109.414 74.8761 108.662C75.8566 108.181 77.0485 107.451 77.5243 107.039L78.3901 106.29L76.9552 105.049L75.5205 103.807L73.5258 104.805C70.3301 106.404 67.4196 106.064 64.972 103.805C62.8632 101.858 62.1115 100.068 62.3183 97.4851C62.7864 91.65 68.5596 88.4973 73.8658 91.1794L75.7542 92.1339L76.936 90.9224C77.5859 90.2561 78.1175 89.6057 78.1175 89.4768C78.1175 89.1075 74.832 87.1112 73.5796 86.7198C71.6548 86.118 69.6072 86.0181 67.736 86.4345ZM91.1204 86.365C87.5587 86.9713 84.0911 89.7653 82.3897 93.3997C81.6604 94.9578 81.5213 95.6978 81.5226 98.0141C81.5242 100.373 81.6555 101.04 82.4289 102.62C84.9361 107.742 89.6355 110.379 94.9576 109.651C98.7406 109.133 102.17 106.58 103.946 102.96C104.755 101.31 104.859 100.742 104.859 97.9833C104.859 95.0649 104.788 94.729 103.725 92.6408C101.372 88.0199 96.2833 85.4861 91.1204 86.365ZM110.597 88.0342L110.694 90.0626H116.799H122.905L123.687 90.9733C124.783 92.2488 124.775 94.3678 123.67 95.407C122.907 96.1246 122.594 96.1658 116.687 96.3206L110.502 96.4832L110.598 98.3033L110.694 100.124L115.069 100.217L119.445 100.31L121.925 104.923L124.404 109.536L126.544 109.632C127.721 109.684 128.683 109.633 128.683 109.517C128.683 109.293 125.42 103.062 124.425 101.388L123.826 100.38L125.394 99.4041C127.522 98.0793 128.505 96.073 128.46 93.1488C128.419 90.5452 127.767 88.9634 126.205 87.6739C124.545 86.3043 122.749 86.0058 116.172 86.0058H110.501L110.597 88.0342ZM134.518 87.8898V89.8397L140.653 89.951C146.281 90.0535 146.864 90.1191 147.703 90.7439C148.655 91.4523 149.012 92.8232 148.637 94.3207C148.264 95.8085 147.065 96.0668 140.531 96.0668H134.518V102.882V109.698H136.463H138.408V104.859V100.019L143.351 99.904C147.737 99.8014 148.45 99.705 149.684 99.0504C152.121 97.757 153.338 94.5823 152.656 91.2949C152.238 89.2782 151.173 87.8797 149.306 86.8947C148.086 86.2505 147.385 86.1784 141.244 86.0648L134.518 85.9402V87.8898ZM12.5907 86.7672C8.28681 88.3626 5.39224 91.7506 4.58157 96.1411C3.66944 101.081 6.53678 106.442 11.2812 108.669C12.8964 109.427 13.5333 109.536 16.3689 109.536C19.446 109.536 19.7144 109.479 21.6608 108.422C23.9992 107.153 25.5641 105.48 26.8334 102.892C27.613 101.303 27.7138 100.726 27.7138 97.8518C27.7138 94.7764 27.6561 94.4999 26.612 92.572C24.452 88.5836 21.1409 86.5617 16.531 86.4153C14.8046 86.3605 13.3333 86.4919 12.5907 86.7672ZM33.3862 98.0141C33.3862 104.44 33.4417 109.698 33.5094 109.698C33.5772 109.698 34.4886 109.033 35.5353 108.219L37.438 106.741L37.6001 101.182L37.7621 95.6238L45.5065 102.498C49.7657 106.28 53.3756 109.373 53.5289 109.373C53.6819 109.373 53.807 104.189 53.807 97.8518C53.807 91.515 53.7114 86.3303 53.5944 86.3303C53.2978 86.3303 51.3254 87.8602 50.5562 88.6872C49.9715 89.3155 49.9174 89.85 49.9174 94.9922C49.9174 98.1488 49.788 100.61 49.6224 100.61C49.4603 100.61 45.8504 97.4007 41.5999 93.4775C37.3498 89.5544 33.7629 86.3413 33.6293 86.3374C33.4958 86.3335 33.3862 91.588 33.3862 98.0141ZM14.3093 90.4112C10.4812 91.441 8.42749 94.1429 8.42749 98.1491C8.42749 102.161 11.5308 105.449 15.5949 105.743C18.1601 105.929 19.9892 105.209 21.7162 103.332C23.3823 101.523 23.9904 100.114 23.9719 98.1056C23.9441 95.0601 22.44 92.511 19.8547 91.1278C17.8042 90.0305 16.3991 89.8491 14.3093 90.4112ZM91.7314 90.2648C88.8239 90.8175 85.8356 93.9267 85.397 96.8558C84.9413 99.8981 86.8985 103.496 89.8361 105.018C91.3687 105.811 94.5326 105.979 96.0143 105.346C99.1266 104.015 100.945 101.311 100.945 98.0141C100.945 93.0313 96.5637 89.3463 91.7314 90.2648ZM30.5254 115.762C29.9763 116.785 30.0246 120.617 30.5889 120.834C31.1438 121.047 31.5727 117.503 31.1711 116.027C30.9111 115.072 30.8985 115.067 30.5254 115.762ZM124.632 115.54C124.502 115.749 124.542 116.067 124.72 116.245C124.937 116.462 125.123 116.443 125.28 116.189C125.409 115.979 125.369 115.662 125.191 115.483C124.975 115.267 124.788 115.286 124.632 115.54ZM10.3723 115.864C10.3723 116.043 10.5182 116.189 10.6965 116.189C10.8747 116.189 11.0206 116.043 11.0206 115.864C11.0206 115.686 10.8747 115.54 10.6965 115.54C10.5182 115.54 10.3723 115.686 10.3723 115.864ZM19.5889 116.676C19.3442 117.982 19.5964 119.642 20.138 120.296C20.337 120.536 20.868 120.733 21.3179 120.733H22.136L21.2783 119.937C20.2515 118.984 20.1481 117.822 21.0689 117.581C21.9201 117.358 21.8686 117.148 20.7435 116.259L19.8058 115.518L19.5889 116.676ZM33.9314 115.751C33.6024 116.08 33.664 120.341 34.0005 120.549C34.4368 120.819 34.6834 119.901 34.6779 118.028C34.6728 116.344 34.3434 115.339 33.9314 115.751ZM36.9518 115.864C36.9518 116.043 37.1706 116.189 37.438 116.189C37.7054 116.189 37.9242 116.043 37.9242 115.864C37.9242 115.686 37.7054 115.54 37.438 115.54C37.1706 115.54 36.9518 115.686 36.9518 115.864ZM75.5244 118.098C75.5244 120.414 75.5883 120.674 76.1963 120.833C77.3205 121.127 79.0922 120.686 79.4465 120.023C80.1142 118.774 79.6724 117.696 78.2037 116.989C77.4488 116.626 76.654 116.152 76.4372 115.934C75.6829 115.179 75.5244 115.555 75.5244 118.098ZM130.797 116.181C130.471 116.542 129.967 116.838 129.678 116.838C128.705 116.838 127.711 117.807 127.711 118.753C127.711 120.004 128.661 120.752 130.347 120.83L131.763 120.895L131.859 118.492C131.966 115.814 131.684 115.2 130.797 116.181ZM37.3498 117.06C36.8575 117.937 36.8254 120.616 37.3041 120.912C37.9744 121.327 38.1809 120.562 37.965 118.461C37.7709 116.573 37.7061 116.426 37.3498 117.06ZM84.5724 117.758L84.0707 118.948L83.5167 117.893C82.9479 116.809 82.3313 116.493 82.3313 117.284C82.3313 117.529 82.5501 118.351 82.8175 119.11C83.4438 120.887 83.4464 120.871 82.4934 121.382C82.0477 121.621 81.6831 121.937 81.6831 122.086C81.6831 122.422 83.0062 122.432 83.5274 122.1C84.0681 121.756 85.5656 118.446 85.5695 117.587C85.5747 116.413 85.1063 116.493 84.5724 117.758ZM120.654 116.871C119.568 117.278 119.418 118.054 120.253 118.945L120.981 119.72L119.908 119.999L118.834 120.278L119.869 120.707C120.697 121.05 121.002 121.055 121.39 120.732C122.017 120.212 122.015 118.98 121.387 118.458C120.953 118.097 120.952 118.009 121.38 117.688C122.096 117.151 121.548 116.536 120.654 116.871ZM10.3723 118.785C10.3723 120.649 10.7299 121.31 11.148 120.219C11.5885 119.07 11.2676 116.838 10.6618 116.838C10.5026 116.838 10.3723 117.714 10.3723 118.785ZM13.6137 118.812C13.6137 120.986 14.2315 121.383 14.6241 119.461C14.7433 118.878 14.9894 118.252 15.1715 118.069C15.6396 117.601 16.2062 118.045 16.2114 118.886C16.2136 119.277 16.307 119.938 16.4182 120.354C16.683 121.345 17.1673 120.646 17.1744 119.263C17.1822 117.688 16.3822 116.838 14.8918 116.838H13.6137V118.812ZM24.5369 117.416C23.9641 118.05 23.818 119.316 24.241 119.982C24.6763 120.668 26.2328 121.092 26.9336 120.716C27.7884 120.258 27.4146 119.759 26.2169 119.759C25.6513 119.759 25.3281 119.623 25.4448 119.434C25.555 119.256 26.2335 119.11 26.9524 119.11H28.2596L27.6467 118.055C26.9002 116.77 25.3994 116.462 24.5369 117.416ZM41.0538 117.432C39.7692 118.853 40.7935 121.022 42.7775 121.082C43.5082 121.104 43.4741 121.152 42.4622 121.527L41.3277 121.948L42.2573 122.383C43.125 122.79 43.2378 122.759 43.959 121.92C44.5995 121.174 44.7311 120.665 44.7311 118.929V116.838H43.1607C42.0508 116.838 41.433 117.012 41.0538 117.432ZM47.6484 117.487C47.2918 117.844 47.0001 118.396 47.0001 118.713C47.0001 120.207 49.0046 121.395 50.3281 120.686C51.1335 120.255 50.7203 119.759 49.555 119.759C48.9894 119.759 48.6662 119.623 48.7829 119.434C48.8931 119.256 49.495 119.11 50.1203 119.11C51.1478 119.11 51.2366 119.039 51.0408 118.38C50.5744 116.807 48.7952 116.339 47.6484 117.487ZM53.5484 118.866C53.6605 121.219 54.1681 121.429 54.5714 119.289C54.9315 117.377 55.571 117.398 56.0588 119.338C56.3438 120.472 56.5191 120.743 56.7405 120.393C57.2121 119.646 57.0971 117.907 56.5392 117.348C56.2468 117.055 55.4803 116.838 54.7409 116.838H53.4521L53.5484 118.866ZM59.9459 117.507C59.0617 118.392 59.2396 119.678 60.3615 120.514C61.1015 121.064 61.3757 121.11 62.0632 120.796C63.1889 120.282 63.0904 119.82 61.8295 119.698C61.038 119.622 60.7514 119.423 60.6765 118.898C60.5926 118.308 60.7851 118.164 61.9109 117.974C63.1251 117.768 63.1922 117.708 62.6586 117.303C61.8081 116.658 60.7119 116.74 59.9459 117.507ZM65.6566 117.559C64.9153 118.619 65.0395 119.623 66.006 120.384C67.0673 121.22 67.4708 121.226 68.4384 120.419L69.2037 119.781L67.969 119.77C67.2306 119.763 66.8148 119.628 66.9347 119.434C67.0449 119.256 67.6368 119.11 68.2504 119.11C69.5738 119.11 69.7009 118.565 68.6157 117.544C67.6378 116.624 66.3059 116.631 65.6566 117.559ZM92.5729 117.112C92.4798 117.263 92.6886 118.137 93.0367 119.054L93.6694 120.722L92.8626 121.252C92.4186 121.543 92.0555 121.91 92.0555 122.068C92.0555 122.58 93.5608 122.372 94.0866 121.787C94.6561 121.154 95.9452 118.051 95.9452 117.313C95.9452 116.495 95.3365 116.794 94.7709 117.889L94.2282 118.939L93.7313 117.889C93.2325 116.834 92.8876 116.602 92.5729 117.112ZM99.0689 117.327C98.2631 118.134 98.1208 119.081 98.6777 119.932C99.8443 121.715 102.428 121.066 102.428 118.99C102.428 118.358 102.183 117.69 101.835 117.375C101.096 116.705 99.714 116.681 99.0689 117.327ZM105.254 117.038C105.126 117.166 105.021 117.9 105.021 118.67C105.021 119.782 105.178 120.171 105.788 120.572C107.431 121.649 109.124 119.694 108.434 117.515C108.084 116.412 107.669 116.737 107.435 118.298C107.265 119.436 107.081 119.759 106.605 119.759C106.159 119.759 105.987 119.517 105.971 118.866C105.942 117.723 105.555 116.736 105.254 117.038ZM111.072 117.054C110.757 117.37 110.817 120.169 111.15 120.695C111.356 121.021 111.494 120.843 111.655 120.046C112.053 118.071 112.165 117.879 113.055 117.644C113.867 117.431 113.885 117.392 113.287 117.148C112.475 116.817 111.356 116.77 111.072 117.054ZM124.469 118.975C124.469 120.539 124.578 121.075 124.875 120.977C125.126 120.894 125.316 120.081 125.376 118.841C125.455 117.208 125.38 116.838 124.971 116.838C124.569 116.838 124.469 117.263 124.469 118.975ZM134.842 117.487C133.975 118.355 134.025 119.295 134.989 120.26C135.853 121.125 136.483 121.243 137.456 120.721C138.435 120.197 138.196 119.759 136.93 119.759C136.243 119.759 135.857 119.628 135.976 119.434C136.087 119.256 136.689 119.11 137.314 119.11C138.341 119.11 138.43 119.039 138.234 118.38C137.768 116.807 135.989 116.339 134.842 117.487ZM24.9586 118.136C24.5573 118.396 24.5855 118.448 25.1207 118.433C25.4772 118.423 26.0607 118.29 26.4172 118.136C27.0111 117.881 26.9974 117.856 26.2552 117.84C25.8095 117.829 25.226 117.963 24.9586 118.136ZM41.8288 118.28C41.2372 118.994 41.6544 119.759 42.6356 119.759C43.3623 119.759 43.4637 119.637 43.3749 118.869C43.2579 117.852 42.4414 117.541 41.8288 118.28ZM48.6208 118.136C48.6208 118.315 48.9125 118.461 49.2691 118.461C49.6256 118.461 49.9174 118.315 49.9174 118.136C49.9174 117.958 49.6256 117.812 49.2691 117.812C48.9125 117.812 48.6208 117.958 48.6208 118.136ZM66.7726 118.136C67.2183 118.279 67.8018 118.408 68.0692 118.423C68.5013 118.448 68.5013 118.416 68.0692 118.136C67.8018 117.963 67.2183 117.834 66.7726 117.849L65.9623 117.876L66.7726 118.136ZM77.0372 118.028C76.9182 118.147 76.821 118.585 76.821 119.002C76.821 119.596 76.9979 119.759 77.6414 119.759C78.0929 119.759 78.5467 119.538 78.6501 119.268C78.9862 118.391 77.6783 117.386 77.0372 118.028ZM99.8498 118.28C99.2615 118.99 99.6809 119.826 100.563 119.701C101.097 119.625 101.294 119.38 101.294 118.79C101.294 117.843 100.457 117.548 99.8498 118.28ZM129.053 118.243C128.497 118.915 128.954 119.759 129.874 119.759C130.552 119.759 130.656 119.626 130.569 118.869C130.454 117.874 129.639 117.537 129.053 118.243ZM136.057 118.026C136.281 118.117 136.645 118.117 136.868 118.026C137.091 117.937 136.908 117.863 136.463 117.863C136.017 117.863 135.835 117.937 136.057 118.026Z" fill="white"/>
</g>
</g>
<defs>
<clipPath id="clip0_482_1296">
<rect width="156.884" height="138.907" fill="white"/>
</clipPath>
</defs>
</svg>
